<?xml version="1.0" encoding="UTF-8" standalone="no"?>
<svg
   version="1.1"
   viewBox="0 0 70.987 108.53"
   id="svg8"
   sodipodi:docname="logo.svg"
   inkscape:version="1.2.2 (b0a8486541, 2022-12-01)"
   xmlns:inkscape="http://www.inkscape.org/namespaces/inkscape"
   xmlns:sodipodi="http://sodipodi.sourceforge.net/DTD/sodipodi-0.dtd"
   xmlns="http://www.w3.org/2000/svg"
   xmlns:svg="http://www.w3.org/2000/svg">
  <defs
     id="defs12" />
  <sodipodi:namedview
     id="namedview10"
     pagecolor="#ffffff"
     bordercolor="#000000"
     borderopacity="0.25"
     inkscape:showpageshadow="2"
     inkscape:pageopacity="0.0"
     inkscape:pagecheckerboard="0"
     inkscape:deskcolor="#d1d1d1"
     showgrid="false"
     inkscape:zoom="6.8460334"
     inkscape:cx="35.568041"
     inkscape:cy="54.191964"
     inkscape:window-width="1920"
     inkscape:window-height="1051"
     inkscape:window-x="0"
     inkscape:window-y="0"
     inkscape:window-maximized="1"
     inkscape:current-layer="svg8" />
  <g
     transform="translate(-33.203 68.774)"
     id="g6">
    <g
       aria-label="f"
       id="text4"
       style="font-size:146.67px;font-family:Lalezar;opacity:0.98094;fill:#065a68;fill-opacity:0.25098;stroke:#ffffff;stroke-width:0">
      <path
         d="m 33.203507,33.452462 q 0.29334,2.05338 1.17336,4.25343 0.88002,2.05338 3.37341,2.05338 1.76004,0 2.9334,-0.88002 1.32003,-0.88002 3.080069,-0.88002 4.69344,0 9.09354,0.88002 4.54677,0.88002 9.38688,0.88002 0.44001,0 1.76004,0 1.32003,0 2.78673,-0.14667 1.4667,0 2.78673,0 1.32003,0 1.76004,0 2.20005,0.29334 2.78673,-0.88002 0.73335,-1.32003 0.88002,-2.9334 0.29334,-1.61337 0.58668,-3.08007 0.44001,-1.61337 1.90671,-2.20005 -0.58668,-0.29334 -2.34672,-0.88002 -1.76004,-0.58668 -2.20005,-0.73335 -0.29334,0 -1.4667,-0.14667 -1.17336,-0.29334 -2.49339,-0.58668 -1.32003,-0.29334 -2.49339,-0.44001 -1.02669,-0.29334 -1.32003,-0.29334 -0.73335,-0.14667 -1.76004,-0.58668 -0.88002,-0.58668 -1.90671,-1.02669 -1.02669,-0.58668 -1.76004,-0.88002 -0.58668,-0.44001 -0.58668,-0.58668 V 10.865283 q 5.57346,0 11.14692,0.73335 5.57346,0.58668 11.14692,0.58668 0.58668,0 1.4667,0 0.88002,0 1.76004,-0.14667 0.88002,-0.29334 1.4667,-0.73335 0.58668,-0.44001 0.58668,-1.3200304 0,-0.29334 -0.14667,-0.58668 0,-0.29334 0,-0.29334 -0.14667,-0.29334 -0.73335,-0.88002 -0.44001,-0.58668 -0.73335,-0.58668 -0.29334,-0.14667 -1.4667,-0.29334 -1.02669,-0.29334 -2.34672,-0.44001 -1.32003,-0.29334 -2.49339,-0.44001 -1.02669,-0.2933399 -1.32003,-0.4400099 -0.73335,-0.14667 -1.76004,-0.58668 -1.02669,-0.58668 -2.05338,-1.02669 -1.02669,-0.58668 -1.76004,-0.88002 -0.58668,-0.44001 -0.58668,-0.58668 V -13.775277 q 1.76004,-0.73335 3.22674,-1.61337 1.4667,-0.88002 1.4667,-2.9334 0,-1.90671 -2.05338,-3.08007 -2.05338,-1.17336 -4.84011,-2.05338 -2.78673,-0.88002 -5.72013,-1.32003 -2.78673,-0.58668 -4.25343,-1.17336 -0.14667,-0.44001 -0.29334,-1.90671 0,-1.4667 0,-1.90671 0,-2.05338 0.58668,-3.22674 0.73335,-1.32003 1.61337,-2.34672 0.88002,-1.17336 1.61337,-2.49339 0.73335,-1.32003 1.02669,-3.37341 0.29334,0.14667 1.17336,0.44001 0.88002,0.29334 1.76004,0.58668 1.02669,0.14667 1.90671,0.29334 0.88002,0.14667 1.32003,0.14667 0.29334,0 1.4667,-0.73335 1.32003,-0.73335 1.61337,-0.73335 0.14667,-0.14667 1.32003,-0.14667 1.32003,-0.14667 2.05338,-0.14667 2.49339,0 3.66675,1.76004 1.17336,1.61337 2.05338,3.81342 1.02669,2.05338 2.34672,3.81342 1.32003,1.61337 4.25343,1.61337 0.44001,0 1.32003,0 0.88002,0 1.76004,-0.14667 0.88002,-0.14667 1.61337,-0.44001 0.73335,-0.44001 0.88002,-1.02669 0.14667,-0.88002 -0.58668,-3.08007 -0.73335,-2.34672 -2.05338,-4.84011 -1.17336,-2.49339 -2.64006,-4.54677 -1.32003,-2.20005 -2.34672,-2.78673 -0.58668,0.14667 -2.20005,0.29334 -1.4667,0 -3.22674,0 -1.61337,0 -3.22674,0 -1.4667,-0.14667 -2.05338,-0.29334 -0.29334,0 -1.17336,-0.44001 -0.88002,-0.58668 -1.90671,-1.17336 -0.88002,-0.58668 -1.90671,-1.02669 -0.88002,-0.44001 -1.02669,-0.44001 -0.14667,0 -0.58668,0.44001 -0.44001,0.44001 -1.02669,1.02669 -0.44001,0.58668 -0.88002,1.02669 -0.44001,0.44001 -0.58668,0.58668 -0.29334,0.14667 -1.17336,0.58668 -0.88002,0.44001 -1.90671,1.02669 -1.02669,0.44001 -2.05338,0.88002 -0.88002,0.44001 -1.02669,0.58668 -0.29334,0.14667 -0.88002,0.73335 -0.44001,0.44001 -0.58668,0.73335 -0.14667,0.14667 -0.44001,0.88002 -0.14667,0.73335 -0.44001,1.4667 -0.14667,0.73335 -0.44001,1.4667 -0.14667,0.58668 -0.29334,0.73335 -0.14667,0.29334 -1.4667,0.88002 -1.32003,0.44001 -1.4667,0.73335 0,0 -0.44001,1.02669 -0.44001,0.88002 -0.88002,2.05338 -0.44001,1.17336 -1.02669,2.49339 -0.44001,1.32003 -0.73335,2.05338 -0.73335,2.05338 -1.4667,3.37341 -0.73335,1.17336 -1.76004,2.05338 -0.88002,0.73335 -2.34672,1.17336 -1.4667,0.44001 -3.666749,1.02669 -0.44001,0.14667 -1.4667,0.44001 -1.02669,0.14667 -2.34672,0.44001 -1.17336,0.14667 -2.34672,0.44001 -1.02669,0.14667 -1.4667,0.14667 v 0.73335 0.88002 q 0.29334,0.29334 0.73335,1.4667 0.58668,1.17336 0.88002,1.4667 3.66675,0.58668 7.626839,1.32003 3.96009,0.58668 7.62684,1.76004 v 7.6268398 7.6268399 q 0,1.17336 -0.29334,4.2534299 -0.14667,3.0800704 -0.44001,6.4534804 -0.14667,3.37341 -0.44001,6.453479 -0.29334,3.08007 -0.44001,4.25343 -0.58668,1.02669 -2.9334,2.64006 -2.20005,1.4667 -4.986779,2.9334 -2.64006,1.4667 -5.13345,2.49339 -2.49339,1.02669 -3.66675,1.02669 z m 30.360689,-47.374409 q 0.14667,0 0.88002,0 0.73335,0 1.61337,0.14667 0.88002,0 1.4667,0.44001 0.73335,0.29334 0.73335,1.02669 V 2.9451027 q 0,0.29334 -1.17336,1.61337 -1.17336,1.17336 -1.90671,1.4667 -0.29334,0.14667 -1.17336,0.4400099 -0.73335,0.29334 -1.76004,0.58668 -1.02669,0.14667 -1.90671,0.44001 -0.88002,0.14667 -1.17336,0.14667 V -10.695207 q 0,-2.78673 1.32003,-2.9334 1.32003,-0.29334 3.08007,-0.29334 z m 39.894244,-47.22774 q -0.73335,-0.14667 -0.73335,0.88002 0,0.88002 0.73335,0.73335 0.73335,-0.29334 0.73335,-0.73335 0,-0.58668 -0.73335,-0.88002 z m -4.693444,-6.013469 q 0,1.90671 0.73335,3.52008 0.880024,1.61337 3.080074,1.61337 0,-2.05338 -0.88002,-3.81342 -0.88002,-1.76004 -2.933404,-2.9334 z"
         style="font-family:'1942 report';fill-opacity:1"
         id="path172" />
    </g>
  </g>
</svg>
